<?xml version="1.0" encoding="UTF-8"?><svg id="Layer_1" xmlns="http://www.w3.org/2000/svg" width="1886.64" height="1457.52" xmlns:xlink="http://www.w3.org/1999/xlink" viewBox="0 0 1886.64 1457.52"><image id="mapa_fondo" width="7861" height="6048" transform="translate(0 6) scale(.24)" xlink:href="../../../../../../../../../../../../var/folders/qy/_0r99glj6f5cmlwc2wqff3h80000gn/T/TemporaryItems/NSIRD_Illustrator_xtWdTa/AI_27_8/Adobe/AISVG/12/mapa_desktop/mapa_desktop1.png"/><image id="contenido" width="4547" height="1155" transform="translate(736.8) scale(.24)" xlink:href="../../../../../../../../../../../../var/folders/qy/_0r99glj6f5cmlwc2wqff3h80000gn/T/TemporaryItems/NSIRD_Illustrator_xtWdTa/AI_27_8/Adobe/AISVG/12/mapa_desktop/mapa_desktop2.png"/><path id="mark21" d="m1863,507.03h-.01c-.27-13.21-11.21-24-24.49-24s-24.22,10.79-24.49,24h-.01v.8h.25l19.89,63.14c.92,2.91,5.02,2.99,6.04.11l22.64-63.55h.18c0-.16,0-.31-.01-.47v-.03h0Zm-14-3.77h-.08l-9.7,27.24c-.44,1.23-2.2,1.2-2.59-.05l-8.53-27.06h-.11v-.35h0c.12-5.66,4.81-10.29,10.49-10.29s10.38,4.62,10.49,10.29h0v.21h.03Z" style="fill:#eb7e67; stroke-width:0px;"/><path id="mark20" d="m1757,741.03h-.01c-.27-13.21-11.21-24-24.49-24s-24.22,10.79-24.49,24h-.01v.8h.25l19.89,63.14c.92,2.91,5.02,2.99,6.04.11l22.64-63.55h.18c0-.16,0-.31-.01-.47v-.03h0Zm-14-3.77h-.08l-9.7,27.24c-.44,1.23-2.2,1.2-2.59-.05l-8.53-27.06h-.11v-.35h0c.12-5.66,4.81-10.29,10.49-10.29s10.38,4.62,10.49,10.29h0v.21h.03Z" style="fill:#eb7e67; stroke-width:0px;"/><path id="mark19" d="m1653,552.03h-.01c-.27-13.21-11.21-24-24.49-24s-24.22,10.79-24.49,24h-.01v.8h.25l19.89,63.14c.92,2.91,5.02,2.99,6.04.11l22.64-63.55h.18c0-.16,0-.31-.01-.47v-.03h0Zm-14-3.77h-.08l-9.7,27.24c-.44,1.23-2.2,1.2-2.59-.05l-8.53-27.06h-.11v-.35h0c.12-5.66,4.81-10.29,10.49-10.29s10.38,4.62,10.49,10.29h0v.21h.03Z" style="fill:#eb7e67; stroke-width:0px;"/><path id="mark18" d="m1559,562.03h-.01c-.27-13.21-11.21-24-24.49-24s-24.22,10.79-24.49,24h-.01v.8h.25l19.89,63.14c.92,2.91,5.02,2.99,6.04.11l22.64-63.55h.18c0-.16,0-.31-.01-.47v-.03h0Zm-14-3.77h-.08l-9.7,27.24c-.44,1.23-2.2,1.2-2.59-.05l-8.53-27.06h-.11v-.35h0c.12-5.66,4.81-10.29,10.49-10.29s10.38,4.62,10.49,10.29h0v.21h.03Z" style="fill:#54b7e7; stroke-width:0px;"/><path id="mark17" d="m1506,564.03h-.01c-.27-13.21-11.21-24-24.49-24s-24.22,10.79-24.49,24h-.01v.8h.25l19.89,63.14c.92,2.91,5.02,2.99,6.04.11l22.64-63.55h.18c0-.16,0-.31-.01-.47v-.03h0Zm-14-3.77h-.08l-9.7,27.24c-.44,1.23-2.2,1.2-2.59-.05l-8.53-27.06h-.11v-.35h0c.12-5.66,4.81-10.29,10.49-10.29s10.38,4.62,10.49,10.29h0v.21h.03Z" style="fill:#5c4893; stroke-width:0px;"/><path id="mark16" d="m1555,803.03h-.01c-.27-13.21-11.21-24-24.49-24s-24.22,10.79-24.49,24h-.01v.8h.25l19.89,63.14c.92,2.91,5.02,2.99,6.04.11l22.64-63.55h.18c0-.16,0-.31-.01-.47v-.03h0Zm-14-3.77h-.08l-9.7,27.24c-.44,1.23-2.2,1.2-2.59-.05l-8.53-27.06h-.11v-.35h0c.12-5.66,4.81-10.29,10.49-10.29s10.38,4.62,10.49,10.29h0v.21h.03Z" style="fill:#eb7e67; stroke-width:0px;"/><path id="mark15" d="m1465,637.03h-.01c-.27-13.21-11.21-24-24.49-24s-24.22,10.79-24.49,24h-.01v.8h.25l19.89,63.14c.92,2.91,5.02,2.99,6.04.11l22.64-63.55h.18c0-.16,0-.31-.01-.47v-.03h0Zm-14-3.77h-.08l-9.7,27.24c-.44,1.23-2.2,1.2-2.59-.05l-8.53-27.06h-.11v-.35h0c.12-5.66,4.81-10.29,10.49-10.29s10.38,4.62,10.49,10.29h0v.21h.03Z" style="fill:#4a99d3; stroke-width:0px;"/><path id="mark14" d="m1455,885.03h-.01c-.27-13.21-11.21-24-24.49-24s-24.22,10.79-24.49,24h-.01v.8h.25l19.89,63.14c.92,2.91,5.02,2.99,6.04.11l22.64-63.55h.18c0-.16,0-.31-.01-.47v-.03h0Zm-14-3.77h-.08l-9.7,27.24c-.44,1.23-2.2,1.2-2.59-.05l-8.53-27.06h-.11v-.35h0c.12-5.66,4.81-10.29,10.49-10.29s10.38,4.62,10.49,10.29h0v.21h.03Z" style="fill:#a893c4; stroke-width:0px;"/><path id="mark13" d="m1342,810.03h-.01c-.27-13.21-11.21-24-24.49-24s-24.22,10.79-24.49,24h-.01v.8h.25l19.89,63.14c.92,2.91,5.02,2.99,6.04.11l22.64-63.55h.18c0-.16,0-.31-.01-.47v-.03h0Zm-14-3.77h-.08l-9.7,27.24c-.44,1.23-2.2,1.2-2.59-.05l-8.53-27.06h-.11v-.35h0c.12-5.66,4.81-10.29,10.49-10.29s10.38,4.62,10.49,10.29h0v.21h.03Z" style="fill:#eb7e67; stroke-width:0px;"/><path id="mark12" d="m1271,452.03h-.01c-.27-13.21-11.21-24-24.49-24s-24.22,10.79-24.49,24h-.01v.8h.25l19.89,63.14c.92,2.91,5.02,2.99,6.04.11l22.64-63.55h.18c0-.16,0-.31-.01-.47v-.03h0Zm-14-3.77h-.08l-9.7,27.24c-.44,1.23-2.2,1.2-2.59-.05l-8.53-27.06h-.11v-.35h0c.12-5.66,4.81-10.29,10.49-10.29s10.38,4.62,10.49,10.29h0v.21h.03Z" style="fill:#54b7e7; stroke-width:0px;"/><path id="mark11" d="m1170,353.03h-.01c-.27-13.21-11.21-24-24.49-24s-24.22,10.79-24.49,24h-.01v.8h.25l19.89,63.14c.92,2.91,5.02,2.99,6.04.11l22.64-63.55h.18c0-.16,0-.31-.01-.47v-.03h0Zm-14-3.77h-.08l-9.7,27.24c-.44,1.23-2.2,1.2-2.59-.05l-8.53-27.06h-.11v-.35h0c.12-5.66,4.81-10.29,10.49-10.29s10.38,4.62,10.49,10.29h0v.21h.03Z" style="fill:#ba70a1; stroke-width:0px;"/><path id="mark10" d="m1145,671.03h-.01c-.27-13.21-11.21-24-24.49-24s-24.22,10.79-24.49,24h-.01v.8h.25l19.89,63.14c.92,2.91,5.02,2.99,6.04.11l22.64-63.55h.18c0-.16,0-.31-.01-.47v-.03h0Zm-14-3.77h-.08l-9.7,27.24c-.44,1.23-2.2,1.2-2.59-.05l-8.53-27.06h-.11v-.35h0c.12-5.66,4.81-10.29,10.49-10.29s10.38,4.62,10.49,10.29h0v.21h.03Z" style="fill:#a893c4; stroke-width:0px;"/><path id="mark9" d="m1071,402.03h-.01c-.27-13.21-11.21-24-24.49-24s-24.22,10.79-24.49,24h-.01v.8h.25l19.89,63.14c.92,2.91,5.02,2.99,6.04.11l22.64-63.55h.18c0-.16,0-.31-.01-.47v-.03h0Zm-14-3.77h-.08l-9.7,27.24c-.44,1.23-2.2,1.2-2.59-.05l-8.53-27.06h-.11v-.35h0c.12-5.66,4.81-10.29,10.49-10.29s10.38,4.62,10.49,10.29h0v.21h.03Z" style="fill:#4a99d3; stroke-width:0px;"/><path id="mark_8" d="m815,357.03h-.01c-.27-13.21-11.21-24-24.49-24s-24.22,10.79-24.49,24h-.01v.8h.25l19.89,63.14c.92,2.91,5.02,2.99,6.04.11l22.64-63.55h.18c0-.16,0-.31-.01-.47v-.03h.01Zm-14-3.77h-.08l-9.7,27.24c-.44,1.23-2.2,1.2-2.59-.05l-8.53-27.06h-.11v-.35h0c.12-5.66,4.81-10.29,10.49-10.29s10.38,4.62,10.49,10.29h0v.21h.03Z" style="fill:#cc448d; stroke-width:0px;"/><path id="mark7" d="m934,637.03h-.01c-.27-13.21-11.21-24-24.49-24s-24.22,10.79-24.49,24h-.01v.8h.25l19.89,63.14c.92,2.91,5.02,2.99,6.04.11l22.64-63.55h.18c0-.16,0-.31-.01-.47v-.03h.01Zm-14-3.77h-.08l-9.7,27.24c-.44,1.23-2.2,1.2-2.59-.05l-8.53-27.06h-.11v-.35h0c.12-5.66,4.81-10.29,10.49-10.29s10.38,4.62,10.49,10.29h0v.21h.03Z" style="fill:#f2e42f; stroke-width:0px;"/><path id="mark_6" d="m762,519.03h-.01c-.27-13.21-11.21-24-24.49-24s-24.22,10.79-24.49,24h-.01v.8h.25l19.89,63.14c.92,2.91,5.02,2.99,6.04.11l22.64-63.55h.18c0-.16,0-.31-.01-.47v-.03h.01Zm-14-3.77h-.08l-9.7,27.24c-.44,1.23-2.2,1.2-2.59-.05l-8.53-27.06h-.11v-.35h0c.12-5.66,4.81-10.29,10.49-10.29s10.38,4.62,10.49,10.29h0v.21h.03Z" style="fill:#eb7e67; stroke-width:0px;"/><path id="mark5" d="m633,586.03h-.01c-.27-13.21-11.21-24-24.49-24s-24.22,10.79-24.49,24h-.01v.8h.25l19.89,63.14c.92,2.91,5.02,2.99,6.04.11l22.64-63.55h.18c0-.16,0-.31-.01-.47v-.03h.01Zm-14-3.77h-.08l-9.7,27.24c-.44,1.23-2.2,1.2-2.59-.05l-8.53-27.06h-.11v-.35h0c.12-5.66,4.81-10.29,10.49-10.29s10.38,4.62,10.49,10.29h0v.21h.03Z" style="fill:#54b7e7; stroke-width:0px;"/><path id="mark4" d="m803,961.03h-.01c-.27-13.21-11.21-24-24.49-24s-24.22,10.79-24.49,24h-.01v.8h.25l19.89,63.14c.92,2.91,5.02,2.99,6.04.11l22.64-63.55h.18c0-.16,0-.31-.01-.47v-.03h.01Zm-14-3.77h-.08l-9.7,27.24c-.44,1.23-2.2,1.2-2.59-.05l-8.53-27.06h-.11v-.35h0c.12-5.66,4.81-10.29,10.49-10.29s10.38,4.62,10.49,10.29h0v.21h.03Z" style="fill:#f2e42f; stroke-width:0px;"/><path id="mark3" d="m713,685.03h-.01c-.27-13.21-11.21-24-24.49-24s-24.22,10.79-24.49,24h-.01v.8h.25l19.89,63.14c.92,2.91,5.02,2.99,6.04.11l22.64-63.55h.18c0-.16,0-.31-.01-.47v-.03h.01Zm-14-3.77h-.08l-9.7,27.24c-.44,1.23-2.2,1.2-2.59-.05l-8.53-27.06h-.11v-.35h0c.12-5.66,4.81-10.29,10.49-10.29s10.38,4.62,10.49,10.29h0v.21h.03Z" style="fill:#ba70a1; stroke-width:0px;"/><path id="mark2" d="m570,685.03h-.01c-.27-13.21-11.21-24-24.49-24s-24.22,10.79-24.49,24h-.01v.8h.25l19.89,63.14c.92,2.91,5.02,2.99,6.04.11l22.64-63.55h.18c0-.16,0-.31-.01-.47v-.03h.01Zm-14-3.77h-.08l-9.7,27.24c-.44,1.23-2.2,1.2-2.59-.05l-8.53-27.06h-.11v-.35h0c.12-5.66,4.81-10.29,10.49-10.29s10.38,4.62,10.49,10.29h0v.21h.03Z" style="fill:#eb7e67; stroke-width:0px;"/><path id="mark1" d="m442,775.03h-.01c-.27-13.21-11.21-24-24.49-24s-24.22,10.79-24.49,24h-.01v.8h.25l19.89,63.14c.92,2.91,5.02,2.99,6.04.11l22.64-63.55h.18c0-.16,0-.31-.01-.47v-.03h.01Zm-14-3.77h-.08l-9.7,27.24c-.44,1.23-2.2,1.2-2.59-.05l-8.53-27.06h-.11v-.35h0c.12-5.66,4.81-10.29,10.49-10.29s10.38,4.62,10.49,10.29h0v.21h.03Z" style="fill:#cc448d; stroke-width:0px;"/></svg>